# xmcd CD Database Entry
#
# Track frame offsets:
# 150
# 17595
# 38558
#
# Disc length: 741 seconds
#
# Revision: 2
# Processed by: cddbd v1.4PL0 Copyright (c) Steve Scherf et al.
# Submitted via: tcd 2.0b
#
DISCID=1502e303
DTITLE=The Beatniks
DYEAR=1900
DGENRE=
TTITLE0=Travel On
TTITLE1=Rainbow Avenue
TTITLE2=Feel What's Right
EXTD=
EXTT0=
EXTT1=
EXTT2=
PLAYORDER=
